# xmcd
#
# Track frame offsets:
#	150
#	8797
#	25089
#	40666
#	51510
#	61435
#	70378
#	83040
#	94439
#	106076
#	119634
#	136791
#
# Disc length: 1969
#
# Revision: 2
# Processed by: cddbd v1.5.1PL0 Copyright (c) Steve Scherf et al.
# Submitted via: EasyCDDAExtractor 6.2.0.3
# Normalized: r1:DSETVAR1
#
DISCID=a007af0c
DTITLE=Various Artist - Sweet Soul Music
DYEAR=2001
DGENRE=Soul
TTITLE0=Roy Brown - Let The Four Winds Blow
TTITLE1=Tommie Bruce - Bony Moronie
TTITLE2=Eddie Bruce - Knock On Wood
TTITLE3=Brook Benton - Frankie and Johnny
TTITLE4=Jimmy Crawford - I Love How You Love Me
TTITLE5=The Drifters - Saturday Night At The Movies
TTITLE6=The Coasters - Poison Ivy
TTITLE7=Sandy Posey - Single Girl
TTITLE8=Brook Benton - My True Confession
TTITLE9=Percey Sledge - Take Time To Know Her
TTITLE10=Mary Wells - The One Who Really Loves You
TTITLE11=Lloyd Price - Personality
EXTD=
EXTT0=
EXTT1=
EXTT2=
EXTT3=
EXTT4=
EXTT5=
EXTT6=
EXTT7=
EXTT8=
EXTT9=
EXTT10=
EXTT11=
PLAYORDER=
